<?xml version="1.0" encoding="UTF-8"?>
<svg id="Layer_1" xmlns="http://www.w3.org/2000/svg" version="1.1" viewBox="0 0 43.1 43.1">
  <!-- Generator: Adobe Illustrator 29.6.1, SVG Export Plug-In . SVG Version: 2.1.1 Build 9)  -->
  <defs>
    <style>
      .st0 {
        fill: #fff;
      }
    </style>
  </defs>
  <g id="WohoYE">
    <g>
      <path class="st0" d="M43.1,9.9v23.2l-.4,2.1c-1,3.5-3.8,6.3-7.2,7.3l-2.3.5H9.9c-5.4-.5-9.6-4.8-9.9-10.2V10.1C.4,4.7,4.7.4,10.1,0h22.7c5.3.3,9.8,4.6,10.2,9.9ZM9.9,3.6c-3.3.4-5.9,3.1-6.3,6.3v23c.3,3.4,3.1,6.1,6.5,6.4h22.9c3.4-.3,6.1-3.1,6.4-6.5V10.1c-.4-3.4-3-6.1-6.4-6.4H9.9Z"/>
      <path class="st0" d="M29.2,13.9c5.7,5.7,3.2,15.6-4.4,17.9s-16.3-5.7-13.2-14.1c2.7-7.3,12.2-9.3,17.7-3.8ZM20.7,14.4c-5,.5-7.8,6.1-5.5,10.5,2.9,5.6,11.4,4.8,13.2-1.2s-2.5-9.8-7.7-9.3Z"/>
      <path class="st0" d="M33.1,7.2c3.4-.1,3.7,5,.5,5.4s-4.1-5.2-.5-5.4Z"/>
    </g>
  </g>
</svg>